<?xml version="1.0" encoding="UTF-8"?>
<svg xmlns="http://www.w3.org/2000/svg" xmlns:xlink="http://www.w3.org/1999/xlink" width="406pt" height="406pt" viewBox="0 0 406 406" version="1.1">
<g id="surface1">
<path style="fill-rule:evenodd;fill:rgb(100%,75.389099%,79.6875%);fill-opacity:1;stroke-width:50.379;stroke-linecap:round;stroke-linejoin:round;stroke:rgb(0%,0%,0%);stroke-opacity:1;stroke-miterlimit:10;" d="M 2044.375 1583.789062 L 2245.078125 1201.445312 L 2245.078125 1633.242188 L 2600.46875 1387.96875 L 2399.765625 1770.3125 L 2828.4375 1718.242188 L 2473.085938 1963.554688 L 2876.835938 2116.679688 L 2448.164062 2168.710938 L 2734.492188 2491.953125 L 2330.742188 2338.828125 L 2434.101562 2758.085938 L 2147.734375 2434.882812 L 2044.375 2854.140625 L 1941.054688 2434.882812 L 1654.6875 2758.085938 L 1758.046875 2338.828125 L 1354.296875 2491.953125 L 1640.625 2168.710938 L 1211.953125 2116.679688 L 1615.703125 1963.554688 L 1260.351562 1718.242188 L 1689.023438 1770.3125 L 1488.359375 1387.96875 L 1843.710938 1633.242188 L 1843.710938 1201.445312 L 2044.375 1583.789062 " transform="matrix(0.1,0,0,-0.1,0,406)"/>
<path style="fill-rule:evenodd;fill:rgb(100%,75.389099%,79.6875%);fill-opacity:1;stroke-width:7.197;stroke-linecap:round;stroke-linejoin:round;stroke:rgb(0%,0%,0%);stroke-opacity:1;stroke-miterlimit:10;" d="M 2044.375 1583.789062 L 2046.171875 1657.851562 L 2020.976562 1628.398438 L 1982.421875 1624.414062 L 2044.375 1583.789062 " transform="matrix(0.1,0,0,-0.1,0,406)"/>
</g>
</svg>
