<?xml version="1.0" encoding="UTF-8"?>
<svg xmlns="http://www.w3.org/2000/svg" xmlns:xlink="http://www.w3.org/1999/xlink" width="406pt" height="406pt" viewBox="0 0 406 406" version="1.1">
<g id="surface1">
<path style="fill:none;stroke-width:35.985;stroke-linecap:round;stroke-linejoin:round;stroke:rgb(0%,0%,0%);stroke-opacity:1;stroke-miterlimit:10;" d="M 2044.375 2015.625 L 2073.164062 2015.625 L 2113.90625 2056.328125 L 2113.90625 2142.695312 L 2032.460938 2224.101562 L 1888.515625 2224.101562 L 1766.40625 2101.953125 L 1766.40625 1900.46875 L 1929.257812 1737.617188 L 2188.359375 1737.617188 L 2391.875 1941.171875 L 2391.875 2257.851562 L 2147.617188 2502.109375 L 1773.398438 2502.109375 L 1488.398438 2217.109375 L 1488.398438 1785.3125 L 1814.101562 1459.609375 L 2303.476562 1459.609375 L 2669.882812 1826.015625 L 2669.882812 2373.007812 L 2262.773438 2780.117188 L 1658.242188 2780.117188 L 1210.390625 2332.265625 L 1210.390625 1670.15625 L 1698.945312 1181.601562 L 2418.632812 1181.601562 L 2947.890625 1710.859375 L 2947.890625 2488.125 L 2377.929688 3058.125 L 1543.085938 3058.125 L 932.382812 2447.421875 L 932.382812 1555 L 1583.789062 903.59375 L 2533.789062 903.59375 L 3225.898438 1595.703125 L 3225.898438 2603.28125 L 2493.085938 3336.09375 L 1427.929688 3336.09375 L 654.375 2562.578125 L 654.375 1439.84375 L 1468.632812 625.585938 L 2648.945312 625.585938 L 3503.90625 1480.546875 " transform="matrix(0.1,0,0,-0.1,0,406)"/>
<path style="fill-rule:evenodd;fill:rgb(0%,0%,0%);fill-opacity:1;stroke-width:7.197;stroke-linecap:round;stroke-linejoin:round;stroke:rgb(0%,0%,0%);stroke-opacity:1;stroke-miterlimit:10;" d="M 3503.90625 1480.546875 L 3467.929688 1415.78125 L 3503.90625 1430.195312 L 3539.882812 1415.78125 L 3503.90625 1480.546875 " transform="matrix(0.1,0,0,-0.1,0,406)"/>
</g>
</svg>
