<?xml version="1.0" encoding="UTF-8"?>
<svg xmlns="http://www.w3.org/2000/svg" xmlns:xlink="http://www.w3.org/1999/xlink" width="432pt" height="288pt" viewBox="0 0 432 288" version="1.1">
<g id="surface1">
<path style="fill:none;stroke-width:64.773;stroke-linecap:round;stroke-linejoin:round;stroke:rgb(0%,0%,0%);stroke-opacity:1;stroke-miterlimit:10;" d="M 591.054688 1425.625 L 1022.890625 1425.625 L 1008.554688 1502.96875 L 967.421875 1570.078125 L 905 1617.96875 L 829.53125 1640.3125 L 751.09375 1634.140625 L 680.039062 1600.273438 L 625.898438 1543.203125 L 595.78125 1470.507812 L 593.710938 1391.835938 L 619.960938 1317.65625 L 671.09375 1257.8125 L 740.234375 1220.273438 L 818.28125 1210 L 894.765625 1228.359375 L 959.648438 1272.929688 " transform="matrix(0.1,0,0,-0.1,0,288)"/>
<path style="fill:none;stroke-width:64.773;stroke-linecap:round;stroke-linejoin:round;stroke:rgb(0%,0%,0%);stroke-opacity:1;stroke-miterlimit:10;" d="M 1454.6875 1209.6875 L 1532.695312 1224.296875 L 1600.15625 1266.054688 L 1647.96875 1329.375 L 1669.6875 1405.664062 L 1662.34375 1484.6875 L 1626.992188 1555.703125 L 1568.359375 1609.179688 L 1494.375 1637.851562 L 1415.039062 1637.851562 L 1341.015625 1609.179688 L 1282.382812 1555.703125 L 1247.03125 1484.6875 L 1239.726562 1405.664062 L 1261.40625 1329.375 L 1309.257812 1266.054688 L 1376.71875 1224.296875 L 1454.6875 1209.6875 " transform="matrix(0.1,0,0,-0.1,0,288)"/>
<path style="fill:none;stroke-width:64.773;stroke-linecap:round;stroke-linejoin:round;stroke:rgb(0%,0%,0%);stroke-opacity:1;stroke-miterlimit:10;" d="M 2318.359375 1641.523438 L 2318.359375 1425.625 L 2303.75 1503.59375 L 2261.992188 1571.054688 L 2198.671875 1618.867188 L 2122.34375 1640.585938 L 2043.359375 1633.28125 L 1972.304688 1597.890625 L 1918.867188 1539.257812 L 1890.195312 1465.273438 L 1890.195312 1385.9375 L 1918.867188 1311.953125 L 1972.304688 1253.28125 L 2043.359375 1217.929688 L 2122.34375 1210.625 L 2198.671875 1232.34375 L 2261.992188 1280.15625 L 2303.75 1347.617188 L 2318.359375 1425.625 L 2318.359375 1209.6875 " transform="matrix(0.1,0,0,-0.1,0,288)"/>
<path style="fill:none;stroke-width:64.773;stroke-linecap:round;stroke-linejoin:round;stroke:rgb(0%,0%,0%);stroke-opacity:1;stroke-miterlimit:10;" d="M 2534.257812 1641.523438 L 2534.257812 1425.625 L 2547.265625 1351.757812 L 2584.765625 1286.835938 L 2642.1875 1238.632812 L 2712.65625 1212.96875 L 2787.65625 1212.96875 L 2858.125 1238.632812 L 2915.546875 1286.835938 L 2953.046875 1351.757812 L 2966.054688 1425.625 L 2966.054688 1641.523438 L 2966.054688 1209.6875 " transform="matrix(0.1,0,0,-0.1,0,288)"/>
<path style="fill:none;stroke-width:64.773;stroke-linecap:round;stroke-linejoin:round;stroke:rgb(0%,0%,0%);stroke-opacity:1;stroke-miterlimit:10;" d="M 3397.890625 1209.6875 L 3397.890625 1641.523438 " transform="matrix(0.1,0,0,-0.1,0,288)"/>
<path style="fill:none;stroke-width:64.773;stroke-linecap:round;stroke-linejoin:round;stroke:rgb(0%,0%,0%);stroke-opacity:1;stroke-miterlimit:10;" d="M 3397.890625 1857.421875 L 3397.890625 1857.421875 " transform="matrix(0.1,0,0,-0.1,0,288)"/>
<path style="fill-rule:evenodd;fill:rgb(0%,0%,0%);fill-opacity:1;stroke-width:7.197;stroke-linecap:round;stroke-linejoin:round;stroke:rgb(0%,0%,0%);stroke-opacity:1;stroke-miterlimit:10;" d="M 3829.6875 1209.6875 L 3764.921875 1245.664062 L 3779.335938 1209.6875 L 3764.921875 1173.710938 L 3829.6875 1209.6875 " transform="matrix(0.1,0,0,-0.1,0,288)"/>
</g>
</svg>
