<?xml version="1.0" encoding="UTF-8"?>
<svg xmlns="http://www.w3.org/2000/svg" xmlns:xlink="http://www.w3.org/1999/xlink" width="504pt" height="360pt" viewBox="0 0 504 360" version="1.1">
<g id="surface1">
<path style="fill:none;stroke-width:21.591;stroke-linecap:round;stroke-linejoin:round;stroke:rgb(0%,0%,0%);stroke-opacity:1;stroke-miterlimit:10;" d="M 3254.101562 2505.3125 L 3254.101562 1065.898438 L 1814.6875 1065.898438 L 1814.6875 2505.3125 L 3254.101562 2505.3125 L 3110.15625 1065.898438 L 1814.6875 1209.84375 L 1958.632812 2505.3125 L 3239.6875 2361.367188 L 2980.625 1080.3125 L 1829.101562 1339.375 L 2086.757812 2490.898438 L 3213.789062 2233.242188 L 2865.46875 1106.210938 L 1854.84375 1454.53125 L 2199.453125 2465.15625 L 3178.945312 2120.546875 L 2764.375 1141.054688 L 1889.296875 1555.625 L 2297.382812 2430.703125 L 3137.5 2022.617188 L 2676.875 1182.5 L 1930.117188 1643.125 L 2381.40625 2389.882812 L 3091.445312 1938.59375 L 2602.226562 1228.554688 L 1975.234375 1717.773438 L 2452.421875 2344.765625 L 3042.539062 1867.578125 L 2539.53125 1277.460938 L 2022.96875 1780.46875 L 2511.40625 2297.03125 L 2992.226562 1808.59375 L 2487.851562 1327.773438 L 2071.796875 1832.148438 L 2559.492188 2248.203125 L 2941.796875 1760.507812 L 2446.25 1378.203125 L 2120.585938 1873.75 L 2597.734375 2199.414062 L 2892.226562 1722.265625 L 2413.671875 1427.773438 L 2168.28125 1906.328125 " transform="matrix(0.1,0,0,-0.1,0,360)"/>
<path style="fill:none;stroke-width:21.591;stroke-linecap:round;stroke-linejoin:round;stroke:rgb(0%,0%,0%);stroke-opacity:1;stroke-miterlimit:10;" d="M 2168.28125 1906.328125 L 2627.1875 2151.71875 L 2844.375 1692.8125 L 2389.140625 1475.625 L 2214.179688 1930.859375 L 2648.90625 2105.820312 L 2798.867188 1671.09375 L 2371.640625 1521.132812 L 2257.65625 1948.359375 L 2663.90625 2062.34375 L 2756.132812 1656.09375 L 2360.234375 1563.867188 L 2298.28125 1959.765625 L 2673.125 2021.71875 L 2716.523438 1646.875 L 2354.0625 1603.476562 L 2335.742188 1965.9375 L 2677.460938 1984.257812 L 2680.3125 1642.539062 L 2352.226562 1639.726562 L 2369.921875 1967.773438 L 2677.734375 1950.078125 L 2647.5 1642.265625 L 2353.984375 1672.5 L 2400.703125 1966.015625 L 2674.726562 1919.296875 L 2618.125 1645.273438 L 2358.671875 1701.875 L 2428.125 1961.328125 L 2669.0625 1891.875 L 2592.1875 1650.9375 L 2365.625 1727.8125 L 2452.226562 1954.375 L 2661.367188 1867.773438 L 2569.53125 1658.632812 L 2374.257812 1750.46875 L 2473.125 1945.742188 L 2652.1875 1846.875 L 2550 1667.8125 L 2384.140625 1770 L 2491.015625 1935.859375 L 2641.953125 1828.984375 L 2533.4375 1678.046875 " transform="matrix(0.1,0,0,-0.1,0,360)"/>
<path style="fill:none;stroke-width:21.591;stroke-linecap:round;stroke-linejoin:round;stroke:rgb(0%,0%,0%);stroke-opacity:1;stroke-miterlimit:10;" d="M 2533.4375 1678.046875 L 2394.84375 1786.5625 L 2506.132812 1925.15625 L 2631.132812 1813.867188 L 2519.570312 1688.867188 L 2405.976562 1800.429688 L 2518.632812 1914.023438 L 2619.960938 1801.367188 L 2508.203125 1700.039062 L 2417.226562 1811.796875 L 2528.75 1902.773438 L 2608.789062 1791.25 L 2499.101562 1711.210938 L 2428.398438 1820.898438 L 2536.757812 1891.601562 L 2597.8125 1783.242188 L 2492.03125 1722.1875 L 2439.21875 1827.96875 L 2542.851562 1880.78125 L 2587.226562 1777.148438 L 2486.757812 1732.773438 L 2449.609375 1833.242188 L 2547.304688 1870.390625 L 2577.1875 1772.695312 L 2483.046875 1742.8125 L 2459.375 1836.953125 L 2550.273438 1860.625 L 2567.773438 1769.726562 L 2480.664062 1752.226562 L 2468.476562 1839.335938 L 2552.03125 1851.523438 L 2559.0625 1767.96875 L 2479.453125 1760.9375 L 2476.796875 1840.546875 L 2552.734375 1843.203125 L 2551.09375 1767.265625 L 2479.179688 1768.90625 L 2484.414062 1840.820312 L 2552.578125 1835.585938 L 2543.90625 1767.421875 L 2479.726562 1776.09375 L 2491.210938 1840.273438 L 2551.71875 1828.789062 " transform="matrix(0.1,0,0,-0.1,0,360)"/>
<path style="fill:none;stroke-width:21.591;stroke-linecap:round;stroke-linejoin:round;stroke:rgb(0%,0%,0%);stroke-opacity:1;stroke-miterlimit:10;" d="M 2551.71875 1828.789062 L 2537.5 1768.28125 L 2480.859375 1782.5 L 2497.265625 1839.140625 L 2550.273438 1822.734375 L 2531.835938 1769.726562 L 2482.5 1788.164062 L 2502.578125 1837.5 L 2548.4375 1817.421875 L 2526.875 1771.5625 L 2484.492188 1793.125 L 2507.148438 1835.507812 L 2546.289062 1812.851562 L 2522.65625 1773.710938 L 2486.757812 1797.34375 L 2511.054688 1833.242188 L 2543.945312 1808.945312 L 2519.0625 1776.054688 L 2489.21875 1800.9375 L 2514.375 1830.78125 L 2541.445312 1805.625 L 2516.09375 1778.554688 L 2491.71875 1803.90625 L 2517.070312 1828.28125 L 2538.90625 1802.929688 L 2513.632812 1781.09375 L 2494.257812 1806.367188 L 2519.257812 1825.742188 L 2536.367188 1800.742188 L 2511.71875 1783.632812 L 2496.757812 1808.28125 L 2520.976562 1823.242188 L 2533.90625 1799.023438 L 2510.195312 1786.09375 L 2499.179688 1809.804688 L 2522.265625 1820.820312 L 2531.523438 1797.734375 L 2509.101562 1788.476562 L 2501.484375 1810.898438 L 2523.203125 1818.515625 L 2529.296875 1796.796875 L 2508.359375 1790.703125 L 2503.632812 1811.640625 " transform="matrix(0.1,0,0,-0.1,0,360)"/>
<path style="fill:none;stroke-width:21.591;stroke-linecap:round;stroke-linejoin:round;stroke:rgb(0%,0%,0%);stroke-opacity:1;stroke-miterlimit:10;" d="M 2503.632812 1811.640625 L 2523.789062 1816.367188 L 2527.1875 1796.210938 L 2507.890625 1792.8125 L 2505.664062 1812.148438 L 2524.140625 1814.335938 L 2525.273438 1795.859375 L 2507.65625 1794.726562 L 2507.539062 1812.34375 L 2524.257812 1812.460938 L 2523.515625 1795.742188 L 2507.65625 1796.484375 L 2509.179688 1812.34375 L 2524.179688 1810.820312 L 2521.914062 1795.820312 " transform="matrix(0.1,0,0,-0.1,0,360)"/>
<path style="fill-rule:evenodd;fill:rgb(0%,0%,0%);fill-opacity:1;stroke-width:7.197;stroke-linecap:round;stroke-linejoin:round;stroke:rgb(0%,0%,0%);stroke-opacity:1;stroke-miterlimit:10;" d="M 2521.914062 1795.820312 L 2457.148438 1831.796875 L 2471.523438 1795.820312 L 2457.148438 1759.84375 L 2521.914062 1795.820312 " transform="matrix(0.1,0,0,-0.1,0,360)"/>
</g>
</svg>
