<?xml version="1.0" encoding="UTF-8"?>
<svg xmlns="http://www.w3.org/2000/svg" xmlns:xlink="http://www.w3.org/1999/xlink" width="432pt" height="288pt" viewBox="0 0 432 288" version="1.1">
<g id="surface1">
<path style="fill:none;stroke-width:64.773;stroke-linecap:round;stroke-linejoin:round;stroke:rgb(50.193787%,0%,50.193787%);stroke-opacity:1;stroke-miterlimit:10;" d="M 447.109375 1965.390625 L 627.03125 1965.390625 L 695.898438 1979.0625 L 754.257812 2018.085938 L 793.28125 2076.445312 L 806.953125 2145.3125 L 793.28125 2214.140625 L 754.257812 2272.539062 L 695.898438 2311.523438 L 627.03125 2325.234375 L 558.203125 2338.945312 L 499.804688 2377.929688 L 460.820312 2436.289062 L 447.109375 2505.15625 L 460.820312 2574.023438 L 499.804688 2632.382812 L 558.203125 2671.40625 L 627.03125 2685.078125 L 806.953125 2685.078125 " transform="matrix(0.1,0,0,-0.1,0,288)"/>
<path style="fill:none;stroke-width:64.773;stroke-linecap:round;stroke-linejoin:round;stroke:rgb(50.193787%,0%,50.193787%);stroke-opacity:1;stroke-miterlimit:10;" d="M 1106.835938 1965.390625 L 1106.835938 2685.078125 " transform="matrix(0.1,0,0,-0.1,0,288)"/>
<path style="fill:none;stroke-width:64.773;stroke-linecap:round;stroke-linejoin:round;stroke:rgb(50.193787%,0%,50.193787%);stroke-opacity:1;stroke-miterlimit:10;" d="M 926.914062 2505.15625 L 1286.757812 2505.15625 " transform="matrix(0.1,0,0,-0.1,0,288)"/>
<path style="fill:none;stroke-width:64.773;stroke-linecap:round;stroke-linejoin:round;stroke:rgb(50.193787%,0%,50.193787%);stroke-opacity:1;stroke-miterlimit:10;" d="M 1406.71875 2145.3125 L 1766.5625 2145.3125 L 1752.851562 2214.140625 L 1713.867188 2272.539062 L 1655.507812 2311.523438 L 1586.640625 2325.234375 L 1517.773438 2311.523438 L 1459.414062 2272.539062 L 1420.390625 2214.140625 L 1406.71875 2145.3125 L 1420.390625 2076.445312 L 1459.414062 2018.085938 L 1517.773438 1979.0625 L 1586.640625 1965.390625 L 1655.507812 1979.0625 L 1713.867188 2018.085938 " transform="matrix(0.1,0,0,-0.1,0,288)"/>
<path style="fill:none;stroke-width:64.773;stroke-linecap:round;stroke-linejoin:round;stroke:rgb(50.193787%,0%,50.193787%);stroke-opacity:1;stroke-miterlimit:10;" d="M 1886.523438 1965.390625 L 1886.523438 2145.3125 L 1900.195312 2076.445312 L 1939.21875 2018.085938 L 1997.578125 1979.0625 L 2066.445312 1965.390625 L 2135.273438 1979.0625 L 2193.671875 2018.085938 L 2232.65625 2076.445312 L 2246.367188 2145.3125 L 2232.65625 2214.140625 L 2193.671875 2272.539062 L 2135.273438 2311.523438 L 2066.445312 2325.234375 L 1997.578125 2311.523438 L 1939.21875 2272.539062 L 1900.195312 2214.140625 L 1886.523438 2145.3125 L 1886.523438 2325.234375 L 1886.523438 1605.546875 " transform="matrix(0.1,0,0,-0.1,0,288)"/>
<path style="fill:none;stroke-width:64.773;stroke-linecap:round;stroke-linejoin:round;stroke:rgb(50.193787%,0%,50.193787%);stroke-opacity:1;stroke-miterlimit:10;" d="M 2366.328125 1965.390625 L 2456.289062 1965.390625 L 2495.3125 1974.296875 L 2526.601562 1999.257812 L 2543.984375 2035.3125 L 2543.984375 2075.351562 L 2526.601562 2111.445312 L 2495.3125 2136.40625 L 2456.289062 2145.3125 L 2417.226562 2154.21875 L 2385.9375 2179.179688 L 2368.554688 2215.234375 L 2368.554688 2255.273438 L 2385.9375 2291.367188 L 2417.226562 2316.328125 L 2456.289062 2325.234375 L 2546.25 2325.234375 " transform="matrix(0.1,0,0,-0.1,0,288)"/>
<path style="fill:none;stroke-width:64.773;stroke-linecap:round;stroke-linejoin:round;stroke:rgb(50.193787%,0%,50.193787%);stroke-opacity:1;stroke-miterlimit:10;" d="M 3086.015625 1965.390625 L 3086.015625 2685.078125 L 3265.9375 2685.078125 L 2906.09375 2685.078125 " transform="matrix(0.1,0,0,-0.1,0,288)"/>
<path style="fill:none;stroke-width:64.773;stroke-linecap:round;stroke-linejoin:round;stroke:rgb(50.193787%,0%,50.193787%);stroke-opacity:1;stroke-miterlimit:10;" d="M 3565.820312 1965.390625 L 3634.6875 1979.0625 L 3693.046875 2018.085938 L 3732.03125 2076.445312 L 3745.742188 2145.3125 L 3732.03125 2214.140625 L 3693.046875 2272.539062 L 3634.6875 2311.523438 L 3565.820312 2325.234375 L 3496.953125 2311.523438 L 3438.59375 2272.539062 L 3399.609375 2214.140625 L 3385.898438 2145.3125 L 3399.609375 2076.445312 L 3438.59375 2018.085938 L 3496.953125 1979.0625 L 3565.820312 1965.390625 " transform="matrix(0.1,0,0,-0.1,0,288)"/>
<path style="fill:none;stroke-width:64.773;stroke-linecap:round;stroke-linejoin:round;stroke:rgb(50.193787%,0%,50.193787%);stroke-opacity:1;stroke-miterlimit:10;" d="M 447.109375 525.976562 L 447.109375 1245.664062 L 447.109375 525.976562 L 806.953125 525.976562 " transform="matrix(0.1,0,0,-0.1,0,288)"/>
<path style="fill:none;stroke-width:64.773;stroke-linecap:round;stroke-linejoin:round;stroke:rgb(50.193787%,0%,50.193787%);stroke-opacity:1;stroke-miterlimit:10;" d="M 926.914062 705.898438 L 1286.757812 705.898438 L 1273.085938 774.765625 L 1234.0625 833.125 L 1175.703125 872.148438 L 1106.835938 885.820312 L 1037.96875 872.148438 L 979.609375 833.125 L 940.625 774.765625 L 926.914062 705.898438 L 940.625 637.070312 L 979.609375 578.671875 L 1037.96875 539.6875 L 1106.835938 525.976562 L 1175.703125 539.6875 L 1234.0625 578.671875 " transform="matrix(0.1,0,0,-0.1,0,288)"/>
<path style="fill:none;stroke-width:64.773;stroke-linecap:round;stroke-linejoin:round;stroke:rgb(50.193787%,0%,50.193787%);stroke-opacity:1;stroke-miterlimit:10;" d="M 1766.5625 885.820312 L 1766.5625 705.898438 L 1752.851562 774.765625 L 1713.867188 833.125 L 1655.507812 872.148438 L 1586.640625 885.820312 L 1517.773438 872.148438 L 1459.414062 833.125 L 1420.390625 774.765625 L 1406.71875 705.898438 L 1420.390625 637.070312 L 1459.414062 578.671875 L 1517.773438 539.6875 L 1586.640625 525.976562 L 1655.507812 539.6875 L 1713.867188 578.671875 L 1752.851562 637.070312 L 1766.5625 705.898438 L 1766.5625 525.976562 " transform="matrix(0.1,0,0,-0.1,0,288)"/>
<path style="fill:none;stroke-width:64.773;stroke-linecap:round;stroke-linejoin:round;stroke:rgb(50.193787%,0%,50.193787%);stroke-opacity:1;stroke-miterlimit:10;" d="M 1886.523438 525.976562 L 1886.523438 705.898438 L 1900.195312 637.070312 L 1939.21875 578.671875 L 1997.578125 539.6875 L 2066.445312 525.976562 L 2135.273438 539.6875 L 2193.671875 578.671875 L 2232.65625 637.070312 L 2246.367188 705.898438 L 2232.65625 774.765625 L 2193.671875 833.125 L 2135.273438 872.148438 L 2066.445312 885.820312 L 1997.578125 872.148438 L 1939.21875 833.125 L 1900.195312 774.765625 L 1886.523438 705.898438 L 1886.523438 885.820312 L 1886.523438 166.132812 " transform="matrix(0.1,0,0,-0.1,0,288)"/>
<path style="fill:none;stroke-width:64.773;stroke-linecap:round;stroke-linejoin:round;stroke:rgb(50.193787%,0%,50.193787%);stroke-opacity:1;stroke-miterlimit:10;" d="M 2366.328125 525.976562 L 2456.289062 525.976562 L 2495.3125 534.882812 L 2526.601562 559.84375 L 2543.984375 595.9375 L 2543.984375 635.976562 L 2526.601562 672.03125 L 2495.3125 696.992188 L 2456.289062 705.898438 L 2417.226562 714.804688 L 2385.9375 739.765625 L 2368.554688 775.859375 L 2368.554688 815.898438 L 2385.9375 851.953125 L 2417.226562 876.914062 L 2456.289062 885.820312 L 2546.25 885.820312 " transform="matrix(0.1,0,0,-0.1,0,288)"/>
<path style="fill-rule:evenodd;fill:rgb(50.193787%,0%,50.193787%);fill-opacity:1;stroke-width:7.197;stroke-linecap:round;stroke-linejoin:round;stroke:rgb(50.193787%,0%,50.193787%);stroke-opacity:1;stroke-miterlimit:10;" d="M 2546.25 525.976562 L 2481.445312 561.953125 L 2495.859375 525.976562 L 2481.445312 490 L 2546.25 525.976562 " transform="matrix(0.1,0,0,-0.1,0,288)"/>
</g>
</svg>
